<?xml version="1.0" encoding="UTF-8" standalone="no"?>
<svg
   width="20"
   height="19.506603"
   viewBox="0 0 20 19.506603"
   fill="none"
   version="1.1"
   id="svg142"
   sodipodi:docname="GitHub.svg"
   inkscape:version="1.2 (dc2aedaf03, 2022-05-15)"
   xmlns:inkscape="http://www.inkscape.org/namespaces/inkscape"
   xmlns:sodipodi="http://sodipodi.sourceforge.net/DTD/sodipodi-0.dtd"
   xmlns="http://www.w3.org/2000/svg"
   xmlns:svg="http://www.w3.org/2000/svg">
  <defs
     id="defs146" />
  <sodipodi:namedview
     id="namedview144"
     pagecolor="#ffffff"
     bordercolor="#666666"
     borderopacity="1.0"
     inkscape:showpageshadow="2"
     inkscape:pageopacity="0.0"
     inkscape:pagecheckerboard="0"
     inkscape:deskcolor="#d1d1d1"
     showgrid="false"
     inkscape:zoom="12.125"
     inkscape:cx="13.360825"
     inkscape:cy="15.670103"
     inkscape:window-width="1920"
     inkscape:window-height="1046"
     inkscape:window-x="-11"
     inkscape:window-y="-11"
     inkscape:window-maximized="1"
     inkscape:current-layer="svg142" />
  <path
     fill-rule="evenodd"
     clip-rule="evenodd"
     d="M 10,0 C 4.475,0 0,4.475 0,10 0,14.425 2.8625,18.1625 6.8375,19.4875 7.3375,19.575 7.525,19.275 7.525,19.0125 7.525,18.775 7.5125,17.9875 7.5125,17.15 5,17.6125 4.35,16.5375 4.15,15.975 4.0375,15.6875 3.55,14.8 3.125,14.5625 2.775,14.375 2.275,13.9125 3.1125,13.9 3.9,13.8875 4.4625,14.625 4.65,14.925 5.55,16.4375 6.9875,16.0125 7.5625,15.75 7.65,15.1 7.9125,14.6625 8.2,14.4125 5.975,14.1625 3.65,13.3 3.65,9.475 c 0,-1.0875 0.3875,-1.9875 1.025,-2.6875 -0.1,-0.25 -0.45,-1.275 0.1,-2.65 0,0 0.8375,-0.2625 2.75,1.025 0.8,-0.225 1.65,-0.3375 2.5,-0.3375 0.85,0 1.7,0.1125 2.5,0.3375 1.9125,-1.3 2.75,-1.025 2.75,-1.025 0.55,1.375 0.2,2.4 0.1,2.65 0.6375,0.7 1.025,1.5875 1.025,2.6875 0,3.8375 -2.3375,4.6875 -4.5625,4.9375 0.3625,0.3125 0.675,0.9125 0.675,1.85 0,1.3375 -0.0125,2.4125 -0.0125,2.75 0,0.2625 0.1875,0.575 0.6875,0.475 C 17.1375,18.1625 20,14.4125 20,10 20,4.475 15.525,0 10,0 Z"
     fill="#1b1f23"
     id="path140"
     style="stroke-width:1.25" />
</svg>
