<?xml version="1.0" encoding="UTF-8" standalone="no"?>
<!-- Created with Inkscape (http://www.inkscape.org/) -->

<svg
   width="13.76676mm"
   height="15.875mm"
   viewBox="0 0 13.76676 15.875"
   version="1.1"
   id="svg5"
   inkscape:version="1.2 (dc2aedaf03, 2022-05-15)"
   sodipodi:docname="Random-night.svg"
   xmlns:inkscape="http://www.inkscape.org/namespaces/inkscape"
   xmlns:sodipodi="http://sodipodi.sourceforge.net/DTD/sodipodi-0.dtd"
   xmlns="http://www.w3.org/2000/svg"
   xmlns:svg="http://www.w3.org/2000/svg">
  <sodipodi:namedview
     id="namedview7"
     pagecolor="#ffffff"
     bordercolor="#666666"
     borderopacity="1.0"
     inkscape:showpageshadow="2"
     inkscape:pageopacity="0.0"
     inkscape:pagecheckerboard="0"
     inkscape:deskcolor="#d1d1d1"
     inkscape:document-units="mm"
     showgrid="false"
     inkscape:zoom="4.7572176"
     inkscape:cx="28.588139"
     inkscape:cy="76.935728"
     inkscape:window-width="1920"
     inkscape:window-height="1046"
     inkscape:window-x="-11"
     inkscape:window-y="-11"
     inkscape:window-maximized="1"
     inkscape:current-layer="layer1" />
  <defs
     id="defs2" />
  <g
     inkscape:label="圖層 1"
     inkscape:groupmode="layer"
     id="layer1"
     transform="translate(-164.90638,-133.59287)">
    <path
       id="path610-7"
       style="font-variation-settings:normal;fill:#eeeeee;fill-opacity:1;stroke:none;stroke-width:0.0257802;stroke-linecap:butt;stroke-linejoin:miter;stroke-miterlimit:4;stroke-dasharray:none;stroke-dashoffset:0;stroke-opacity:1;stop-color:#000000"
       d="m 171.78976,133.59287 -6.72213,3.88114 6.72213,3.88088 6.72225,-3.88088 z m 0,3.09275 a 1.4260499,0.88134723 0 0 1 1.42597,0.88141 1.4260499,0.88134723 0 0 1 -1.42597,0.88129 1.4260499,0.88134723 0 0 1 -1.4261,-0.88129 1.4260499,0.88134723 0 0 1 1.4261,-0.88141 z m 6.88338,1.06734 -6.722,3.88101 v 7.8339 l 6.722,-3.88101 z m -13.76676,1.2e-4 v 7.83378 l 6.72213,3.88101 v -7.83378 z m 12.11143,2.88505 a 0.59930712,0.96969933 45 0 1 0.31999,0.12034 0.59930712,0.96969933 45 0 1 -0.26183,1.10938 0.59930712,0.96969933 45 0 1 -1.10951,0.26196 0.59930712,0.96969933 45 0 1 0.26196,-1.10951 0.59930712,0.96969933 45 0 1 0.78939,-0.38217 z m -8.06476,1.35888 a 0.96969933,0.59930712 45 0 1 0.78939,0.38217 0.96969933,0.59930712 45 0 1 0.26196,1.1095 0.96969933,0.59930712 45 0 1 -1.10951,-0.26195 0.96969933,0.59930712 45 0 1 -0.26183,-1.10938 0.96969933,0.59930712 45 0 1 0.31999,-0.12034 z m 5.67342,0 a 0.59930712,0.96969933 45 0 1 0.31998,0.12034 0.59930712,0.96969933 45 0 1 -0.26195,1.10938 0.59930712,0.96969933 45 0 1 -1.10938,0.26195 0.59930712,0.96969933 45 0 1 0.26183,-1.1095 0.59930712,0.96969933 45 0 1 0.78952,-0.38217 z m -8.06489,1.27504 a 0.96969933,0.59930712 45 0 1 0.78952,0.3823 0.96969933,0.59930712 45 0 1 0.26183,1.1095 0.96969933,0.59930712 45 0 1 -1.10938,-0.26195 0.96969933,0.59930712 45 0 1 -0.26196,-1.10939 0.96969933,0.59930712 45 0 1 0.31999,-0.12046 z m 10.45623,0 a 0.59930712,0.96969933 45 0 1 0.31999,0.12046 0.59930712,0.96969933 45 0 1 -0.26183,1.10939 0.59930712,0.96969933 45 0 1 -1.10951,0.26195 0.59930712,0.96969933 45 0 1 0.26196,-1.1095 0.59930712,0.96969933 45 0 1 0.78939,-0.3823 z m -2.39134,1.34176 a 0.59930712,0.96969933 45 0 1 0.31998,0.12034 0.59930712,0.96969933 45 0 1 -0.26195,1.10938 0.59930712,0.96969933 45 0 1 -1.10938,0.26195 0.59930712,0.96969933 45 0 1 0.26183,-1.10951 0.59930712,0.96969933 45 0 1 0.78952,-0.38216 z" />
  </g>
</svg>
